<?xml version="1.0" standalone="no"?>
<!DOCTYPE svg PUBLIC "-//W3C//DTD SVG 20010904//EN"
 "http://www.w3.org/TR/2001/REC-SVG-20010904/DTD/svg10.dtd">
<svg version="1.0" xmlns="http://www.w3.org/2000/svg"
 width="425.000000pt" height="425.000000pt" viewBox="0 0 425.000000 425.000000"
 preserveAspectRatio="xMidYMid meet">
<g transform="translate(0.000000,425.000000) scale(0.100000,-0.100000)"
fill="#3090FF" stroke="none">
<path class="circle2" d="M3623 3599 c-51 -32 -73 -77 -73 -145 0 -65 15 -97 65 -136 25 -19
41 -23 100 -23 58 0 75 4 102 24 94 71 81 237 -23 286 -47 22 -132 19 -171 -6z"/>
<path  d="M1630 3480 c-329 -46 -600 -180 -836 -415 -245 -242 -381 -536 -415
-888 -33 -357 84 -746 308 -1022 151 -186 375 -351 588 -434 185 -72 337 -100
537 -101 390 0 733 143 1013 424 132 133 201 228 275 381 99 205 140 393 139
634 -1 220 -13 287 -22 121 -30 -571 -478 -1031 -1051 -1079 -565 -48 -1078
324 -1217 880 -29 118 -36 334 -16 454 122 696 819 1122 1492 910 11 -3 3 3
-18 15 -54 30 -228 85 -328 105 -98 19 -355 28 -449 15z"/>
    <g class="circle1">
<path class="circle1" d="M3202 3330 c-57 -13 -108 -55 -136 -111 -44 -88 -30 -176 39 -245
148 -147 400 -10 354 193 -18 84 -64 133 -143 158 -54 16 -65 17 -114 5z"/>
    </g>
<path  d="M1969 3206 c-189 -40 -331 -117 -470 -256 -195 -194 -277 -406 -266
-684 6 -158 23 -229 88 -362 155 -324 462 -515 824 -515 359 0 661 186 824
508 56 112 83 223 88 369 6 146 -8 242 -54 366 l-26 71 -12 -46 c-61 -240
-394 -268 -501 -42 -27 57 -32 146 -10 207 34 96 135 168 239 171 30 1 53 5
51 9 -3 4 -42 32 -88 63 -92 61 -172 97 -281 127 -92 26 -313 33 -406 14z m84
-581 c141 -30 258 -123 320 -252 30 -64 32 -74 32 -183 0 -109 -2 -118 -32
-181 -80 -163 -229 -259 -403 -259 -174 0 -323 96 -403 259 -30 63 -32 72 -32
182 0 113 1 117 37 190 74 149 227 249 393 258 11 0 50 -6 88 -14z"/>
</g>
</svg>
